{"title":"Snow.White.and.the.Huntsman.[2012].720p Blu-ray[Dual Audio].6Ch.","uid":7681664,"size":2465550454,"categoryP":"video","categoryS":"hd___movies","magnet":"?xt=urn:btih:4ae55a1c4699a36793421c5c5f12c4aa272a0db1&amp;dn=Snow.White.and.the.Huntsman.%5B2012%5D.720p+Blu-ray%5BDual+Audio%5D.6Ch.&amp;tr=udp%3A%2F%2Ftracker.openbittorrent.com%3A80&amp;tr=udp%3A%2F%2Fopen.demonii.com%3A1337&amp;tr=udp%3A%2F%2Ftracker.coppersurfer.tk%3A6969&amp;tr=udp%3A%2F%2Fexodus.desync.com%3A6969","seeders":1,"leechers":0,"uploader":"TeamExD","files":4,"time":1348838935,"description":"Format                                   : Matroska\nFormat version                           : Version 2\nFile size                                : 2.28 GiB\nDuration                                 : 2h 11mn\nOverall bit rate                         : 2 483 Kbps\nMovie name                               : Snow.White.and.the.Huntsman.2012.720p Blu-ray[Dual Audio].6Ch.[ DTS.Hindi-English].by K@rtik [ExD Exclusive]\n\nCodec ID                                 : V_MPEG4/ISO/AVC\nDuration                                 : 2h 11mn\nBit rate                                 : 1 231 Kbps\nNominal bit rate                         : 823 Kbps\nWidth                                    : 1 280 pixels\nHeight                                   : 544 pixels\nDisplay aspect ratio                     : 2.35:1\nFrame rate                               : 23.976 fps\nColor space                              : YUV\nChroma subsampling                       : 4:2:0\nBit depth                                : 8 bits\nScan type                                : Progressive\nBits/(Pixel*Frame)                       : 0.074\nStream size                              : 1.13 GiB (50%)\nTitle                                    : K@rtik\n\nCodec ID                                 : A_AC3\nDuration                                 : 2h 11mn\nBit rate mode                            : Constant\nBit rate                                 : 448 Kbps\nChannel(s)                               : 6 channels\nChannel positions                        : Front: L C R, Side: L R, LFE\nSampling rate                            : 48.0 KHz\nBit depth                                : 16 bits\nCompression mode                         : Lossy\nStream size                              : 422 MiB (18%)\nTitle                                    : K@rtik\nLanguage                                 : English\n\nCodec ID                                 : A_DTS\nDuration                                 : 2h 11mn\nBit rate mode                            : Constant\nBit rate                                 : 755 Kbps\nChannel(s)                               : 6 channels\nChannel positions                        : Front: L C R, Side: L R, LFE\nSampling rate                            : 48.0 KHz\nBit depth                                : 24 bits\nCompression mode                         : Lossy\nStream size                              : 710 MiB (30%)\nTitle                                    : K@rtik\nLanguage                                 : Hindi\n &lt;a href=&quot;\nhttp://imageshack.us/a/img155/1023/111wc.png&quot; rel=&quot;nofollow&quot; target=&quot;_NEW&quot;&gt;\nhttp://imageshack.us/a/img155/1023/111wc.png&lt;/a&gt; &lt;a href=&quot;\nhttp://imageshack.us/a/img407/9982/1111w.png&quot; rel=&quot;nofollow&quot; target=&quot;_NEW&quot;&gt;\nhttp://imageshack.us/a/img407/9982/1111w.png&lt;/a&gt; &lt;a href=&quot;\nhttp://imageshack.us/a/img692/7296/92954116.png&quot; rel=&quot;nofollow&quot; target=&quot;_NEW&quot;&gt;\nhttp://imageshack.us/a/img692/7296/92954116.png&lt;/a&gt; &lt;a href=&quot;\nhttp://imageshack.us/a/img208/7017/47042010.png&quot; rel=&quot;nofollow&quot; target=&quot;_NEW&quot;&gt;\nhttp://imageshack.us/a/img208/7017/47042010.png&lt;/a&gt; &lt;a href=&quot;\nhttp://imageshack.us/a/img96/97/34552364.png&quot; rel=&quot;nofollow&quot; target=&quot;_NEW&quot;&gt;\nhttp://imageshack.us/a/img96/97/34552364.png&lt;/a&gt; &lt;a href=&quot;\nhttp://imageshack.us/a/img42/7998/87082621.png&quot; rel=&quot;nofollow&quot; target=&quot;_NEW&quot;&gt;\nhttp://imageshack.us/a/img42/7998/87082621.png&lt;/a&gt; &lt;a href=&quot;\nhttp://imageshack.us/a/img35/1620/15579445.png&quot; rel=&quot;nofollow&quot; target=&quot;_NEW&quot;&gt;\nhttp://imageshack.us/a/img35/1620/15579445.png&lt;/a&gt; &lt;a href=&quot;\nhttp://imageshack.us/a/img196/2769/81629674.png&quot; rel=&quot;nofollow&quot; target=&quot;_NEW&quot;&gt;\nhttp://imageshack.us/a/img196/2769/81629674.png&lt;/a&gt; &lt;a href=&quot;\nhttp://imageshack.us/a/img853/8245/47668843.png&quot; rel=&quot;nofollow&quot; target=&quot;_NEW&quot;&gt;\nhttp://imageshack.us/a/img853/8245/47668843.png&lt;/a&gt; &lt;a href=&quot;\nhttp://imageshack.us/a/img267/9079/42973408.png&quot; rel=&quot;nofollow&quot; target=&quot;_NEW&quot;&gt;\nhttp://imageshack.us/a/img267/9079/42973408.png&lt;/a&gt; &lt;a href=&quot;\nhttp://imageshack.us/a/img33/8435/13618120.png&quot; rel=&quot;nofollow&quot; target=&quot;_NEW&quot;&gt;\nhttp://imageshack.us/a/img33/8435/13618120.png&lt;/a&gt; &lt;a href=&quot;\nhttp://imageshack.us/a/img805/7603/49830277.png&quot; rel=&quot;nofollow&quot; target=&quot;_NEW&quot;&gt;\nhttp://imageshack.us/a/img805/7603/49830277.png&lt;/a&gt; &lt;a href=&quot;\nhttp://imageshack.us/a/img19/3918/25875838.png&quot; rel=&quot;nofollow&quot; target=&quot;_NEW&quot;&gt;\nhttp://imageshack.us/a/img19/3918/25875838.png&lt;/a&gt;\n","torrent":{"xt":"urn:btih:4ae55a1c4699a36793421c5c5f12c4aa272a0db1","amp;dn":"Snow.White.and.the.Huntsman.%5B2012%5D.720p+Blu-ray%5BDual+Audio%5D.6Ch.","amp;tr":["udp%3A%2F%2Ftracker.openbittorrent.com%3A80","udp%3A%2F%2Fopen.demonii.com%3A1337","udp%3A%2F%2Ftracker.coppersurfer.tk%3A6969","udp%3A%2F%2Fexodus.desync.com%3A6969"],"infoHash":"4ae55a1c4699a36793421c5c5f12c4aa272a0db1","infoHashBuffer":{"type":"Buffer","data":[74,229,90,28,70,153,163,103,147,66,28,92,95,18,196,170,39,42,13,177]},"announce":[],"urlList":[]}}